<svg xmlns="http://www.w3.org/2000/svg" xmlns:xlink="http://www.w3.org/1999/xlink" xmlns:inkscape="http://www.inkscape.org/namespaces/inkscape" version="1.1" width="218.693" height="230.98" viewBox="0 0 218.693 230.98">
<defs>
<clipPath id="clip_0">
<path transform="matrix(1,0,0,-1,0,230.98)" d="M0 230.98H218.693V0H0Z"/>
</clipPath>
</defs>
<g clip-path="url(#clip_0)">
<path transform="matrix(1,0,0,-1,108.9491,30.864594)" d="M0 0C26.167 0 47.379-28.538 47.379-63.742H70.866C70.866-24.603 39.138 7.125 0 7.125-39.138 7.125-70.866-24.603-70.866-63.742H-47.38C-47.38-28.538-26.166 0 0 0" fill="#E4B587"/>
<path transform="matrix(1,0,0,-1,128.6462,134.258)" d="M0 0 13.417-22.689 17.598-20.216 4.181 2.473ZM-12.747-17.083H-26.585V-4.303H-31.508V-31.214H-26.585V-19.403H-12.747V-31.14H-7.824V-4.228H-12.747ZM46.927 13.46 24.793 27.841 23.685 26.135 39.301 15.988 15.136 12.977 14.037 11.286 36.171-3.095 37.27-1.404 21.868 8.603 45.819 11.753ZM-44.374 2.041C-50.325 5.509-54.67 2.869-55.952 .669-58.192-3.174-54.92-8.28-52.931-11.73-50.863-15.227-49.57-17.077-50.926-19.223-51.786-20.584-54.173-21.104-56.609-19.67-61.323-16.896-61.544-13.187-61.525-12.304L-63.815-12.748C-63.777-14.476-63.068-18.565-57.666-21.713-50.11-26.116-47.366-23.031-45.914-20.54-43.894-17.073-47.12-11.392-49.109-7.942-51.178-4.445-52.584-2.365-51.297-.156-50.444 1.308-47.922 1.336-45.432-.002-40.327-2.744-40.599-7.149-40.599-7.149L-38.478-6.794C-38.478-6.794-37.68-1.86-44.374 2.041M-63.774 16.101C-64.548 13.771-66.252 11.573-68.886 9.505-71.115 7.894-73.533 6.943-76.141 6.652-78.749 6.361-80.693 6.957-81.974 8.44-82.993 9.983-83.039 11.972-82.11 14.411-81.181 16.849-79.586 18.962-77.323 20.751-74.618 22.705-72.04 23.733-69.59 23.837-67.14 23.941-65.338 23.266-64.184 21.809-63.138 20.333-63.001 18.43-63.774 16.101M-62.556 23.03C-64.69 25.874-67.446 27.424-70.822 27.679-74.198 27.935-77.362 26.954-80.315 24.74-83.267 22.525-85.093 19.762-85.793 16.448-86.493 13.136-85.776 10.057-83.642 7.212-81.501 4.358-78.743 2.806-75.371 2.555-71.998 2.305-68.835 3.287-65.883 5.502-62.931 7.717-61.103 10.478-60.4 13.786-59.696 17.094-60.415 20.176-62.556 23.03" fill="#ffffff"/>
</g>
<text fill="#ffffff" xml:space="preserve" transform="matrix(1 0 -0 1 0 230.98)" font-size="16.5522" font-family="Raleway" font-weight="bold"><tspan y="-41.8027" x="22.4229 35.714319 48.608484 59.79777 70.77188 81.431499 92.538028 97.61955 110.13302 115.21455 127.14868 137.87451 148.98104 162.42142 174.1735 185.36278">HOTELS &#x0026; RESORTS</tspan></text>
</svg>
